<svg width="28" height="26" fill="none" xmlns="http://www.w3.org/2000/svg">
      <path
        d="M10.088 15.9c.23-.06.322-.076.412-.105 2.312-.781 4.635-1.524 6.992-2.154.48-.128.574-.284.356-.75-.97-2.09-1.907-4.197-2.864-6.294-.066-.147-.123-.316-.28-.316-.158 0-.206.166-.27.302C13.76 8.02 13.09 9.462 12.42 10.9l-2.333 5Zm14.364 10.088a.991.991 0 0 1-.532-.118c-.263-.147-.375-.414-.428-.53-1.527-3.396-3.087-6.776-4.603-10.177-.228-.511-.44-.652-.984-.48-1.614.507-3.28.839-4.86 1.459-1.454.57-1.571 1.042-.304 1.948.518.37 1.027.756 1.468 1.221.92.971.863 1.917-.215 2.709-2.398 1.757-5.122 2.717-8.013 3.231-1.482.265-2.975.358-4.473.12-.581-.092-1.175-.219-1.423-.837-.246-.61.088-1.107.412-1.612.66-1.028 1.745-.939 2.724-1.09.329-.05.402.263.204.526-.196.262-.453.479-.646.742-.398.544-.297.822.364.976.663.155 1.345.128 2.011.043 1.793-.228 3.502-.72 4.985-1.822.822-.61.82-1.013-.005-1.598-.707-.502-1.439-.97-2.146-1.474-.676-.481-.816-1.042-.491-1.77 1.81-4.055 3.618-8.11 5.426-12.166.678-1.523 1.358-3.046 2.026-4.574.174-.396.37-.717.868-.715.489.002.704.308.884.703 2.613 5.757 5.23 11.51 7.847 17.265a4736.96 4736.96 0 0 1 3.293 7.257c.147.325.2.52.126.633-.098.153-.35.145-.623.14a43.615 43.615 0 0 0-1.5 0c-.461-.01-.931 0-1.392-.01Z"
        fill="#022B54"
      />
    </svg>